<?xml version="1.0" encoding="UTF-8"?>
<!DOCTYPE svg PUBLIC "-//W3C//DTD SVG 1.1//EN" "http://www.w3.org/Graphics/SVG/1.1/DTD/svg11.dtd">
<svg xmlns="http://www.w3.org/2000/svg" version="1.1" width="512px" height="484px" style="shape-rendering:geometricPrecision; text-rendering:geometricPrecision; image-rendering:optimizeQuality; fill-rule:evenodd; clip-rule:evenodd" xmlns:xlink="http://www.w3.org/1999/xlink">
<g><path style="opacity:0.999" fill="#ff4a3f" d="M 475.5,34.5 C 476.08,36.7488 477.413,38.4154 479.5,39.5C 479.427,41.0269 480.094,42.0269 481.5,42.5C 481.427,44.0269 482.094,45.0269 483.5,45.5C 485.008,47.1815 486.008,49.1815 486.5,51.5C 487.326,54.4848 488.659,57.1515 490.5,59.5C 490.565,62.4282 491.232,65.0948 492.5,67.5C 492.742,71.479 493.742,75.1456 495.5,78.5C 495.5,78.8333 495.5,79.1667 495.5,79.5C 496.197,87.079 497.53,94.4123 499.5,101.5C 500.373,105.768 500.706,110.102 500.5,114.5C 501.266,152.164 501.933,189.83 502.5,227.5C 503.129,274.216 502.129,320.883 499.5,367.5C 498.552,391.623 493.052,414.623 483,436.5C 471.188,454.634 454.688,466.134 433.5,471C 406.761,476.256 379.761,479.256 352.5,480C 272.151,481.014 191.818,480.514 111.5,478.5C 98.2578,476.7 84.9245,474.034 71.5,470.5C 69.4973,468.018 66.8306,467.018 63.5,467.5C 58.1743,464.837 52.841,462.17 47.5,459.5C 46.7377,457.738 45.4044,456.738 43.5,456.5C 40.5,454.167 37.8333,451.5 35.5,448.5C 34.5,446.833 33.1667,445.5 31.5,444.5C 26.0576,437.286 21.8909,429.286 19,420.5C 15.539,407.657 12.8723,394.657 11,381.5C 8.31083,337.379 7.14416,293.212 7.5,249C 7.68235,206.83 8.18235,164.663 9,122.5C 9.25309,93.822 15.9198,66.822 29,41.5C 37.3247,31.5079 47.158,23.3413 58.5,17C 80.1846,9.43968 102.518,4.77301 125.5,3C 159.131,0.981093 192.797,0.14776 226.5,0.5C 254.534,0.90049 282.534,0.90049 310.5,0.5C 338.829,1.50478 367.162,2.67144 395.5,4C 415.695,6.50515 435.362,11.1718 454.5,18C 462.548,22.22 469.548,27.72 475.5,34.5 Z"/></g>
<g><path style="opacity:0.969" fill="#ffbbb4" d="M 475.5,34.5 C 477.587,35.5846 478.92,37.2512 479.5,39.5C 477.413,38.4154 476.08,36.7488 475.5,34.5 Z"/></g>
<g><path style="opacity:0.478" fill="#fdbfba" d="M 479.5,39.5 C 480.906,39.9731 481.573,40.9731 481.5,42.5C 480.094,42.0269 479.427,41.0269 479.5,39.5 Z"/></g>
<g><path style="opacity:0.698" fill="#ecc5c2" d="M 481.5,42.5 C 482.906,42.9731 483.573,43.9731 483.5,45.5C 482.094,45.0269 481.427,44.0269 481.5,42.5 Z"/></g>
<g><path style="opacity:0.208" fill="#e9d9d8" d="M 486.5,51.5 C 488.873,53.5792 490.206,56.2459 490.5,59.5C 488.659,57.1515 487.326,54.4848 486.5,51.5 Z"/></g>
<g><path style="opacity:0.541" fill="#fde3e1" d="M 490.5,59.5 C 492.04,61.8383 492.706,64.5049 492.5,67.5C 491.232,65.0948 490.565,62.4282 490.5,59.5 Z"/></g>
<g><path style="opacity:0.275" fill="#feeeed" d="M 492.5,67.5 C 494.258,70.8544 495.258,74.521 495.5,78.5C 493.742,75.1456 492.742,71.479 492.5,67.5 Z"/></g>
<g><path style="opacity:0.209" fill="#ffe2e0" d="M 495.5,79.5 C 497.656,86.5563 498.989,93.8896 499.5,101.5C 497.53,94.4123 496.197,87.079 495.5,79.5 Z"/></g>
<g><path style="opacity:0.996" fill="#fefefe" d="M 164.5,90.5 C 255.169,90.1667 345.836,90.5 436.5,91.5C 400.179,131.653 363.013,170.987 325,209.5C 317.068,199.166 309.235,188.666 301.5,178C 312.32,165.845 323.154,153.678 334,141.5C 334.749,140.365 334.583,139.365 333.5,138.5C 302.542,137.341 271.542,137.175 240.5,138C 239.57,139.194 238.903,140.527 238.5,142C 245.599,153.003 253.099,163.836 261,174.5C 301.303,238.455 341.97,302.122 383,365.5C 386,370.833 389,376.167 392,381.5C 393.098,385.505 392.265,389.005 389.5,392C 384.803,392.28 380.137,392.78 375.5,393.5C 374.558,393.392 373.725,393.059 373,392.5C 323.246,394.043 273.412,394.71 223.5,394.5C 187.167,394.333 150.833,394.167 114.5,394C 110.767,393.934 107.267,393.101 104,391.5C 102.699,389.635 102.365,387.635 103,385.5C 106.285,380.546 109.952,375.88 114,371.5C 150.112,334.72 186.279,297.887 222.5,261C 225.025,260.104 227.192,260.604 229,262.5C 234.087,270.341 239.42,278.008 245,285.5C 245.667,287.5 245.667,289.5 245,291.5C 231.423,306.749 217.423,321.749 203,336.5C 201.445,338.443 200.278,340.61 199.5,343C 200.751,345.303 202.751,346.636 205.5,347C 242.167,347.667 278.833,347.667 315.5,347C 316.516,346.481 317.182,345.647 317.5,344.5C 266.169,265.178 215.336,185.511 165,105.5C 164.501,100.511 164.334,95.5111 164.5,90.5 Z"/></g>
<g><path style="opacity:0.996" fill="#f8d5d3" d="M 500.5,114.5 C 501.314,116.631 501.814,118.964 502,121.5C 502.621,133.828 503.121,146.162 503.5,158.5C 503.038,181.366 503.038,204.366 503.5,227.5C 503.167,227.5 502.833,227.5 502.5,227.5C 501.933,189.83 501.266,152.164 500.5,114.5 Z"/></g>
<g><path style="opacity:0.993" fill="#fac7c3" d="M 502.5,227.5 C 502.833,227.5 503.167,227.5 503.5,227.5C 503.667,262.502 503.5,297.502 503,332.5C 502.77,344.227 501.937,355.894 500.5,367.5C 500.167,367.5 499.833,367.5 499.5,367.5C 502.129,320.883 503.129,274.216 502.5,227.5 Z"/></g>
<g><path style="opacity:0.012" fill="#ffd1cd" d="M 31.5,444.5 C 33.1667,445.5 34.5,446.833 35.5,448.5C 33.1667,448.167 31.8333,446.833 31.5,444.5 Z"/></g>
<g><path style="opacity:0.482" fill="#ffd8d4" d="M 43.5,456.5 C 45.4044,456.738 46.7377,457.738 47.5,459.5C 45.5956,459.262 44.2623,458.262 43.5,456.5 Z"/></g>
<g><path style="opacity:0.129" fill="#fae8e7" d="M 47.5,459.5 C 52.841,462.17 58.1743,464.837 63.5,467.5C 57.0281,466.911 51.6948,464.244 47.5,459.5 Z"/></g>
<g><path style="opacity:0.725" fill="#ffd0cb" d="M 63.5,467.5 C 66.8306,467.018 69.4973,468.018 71.5,470.5C 68.7428,469.488 66.0761,468.488 63.5,467.5 Z"/></g>
<g><path style="opacity:0.356" fill="#fdf4f3" d="M 71.5,470.5 C 84.9245,474.034 98.2578,476.7 111.5,478.5C 97.5294,478.398 84.196,475.731 71.5,470.5 Z"/></g>
<g><path style="opacity:0.164" fill="#f2e3e3" d="M 499.5,367.5 C 499.833,367.5 500.167,367.5 500.5,367.5C 499.898,392.35 494.398,416.016 484,438.5C 480.35,443.813 476.35,448.813 472,453.5C 468.592,456.453 465.092,459.287 461.5,462C 438.131,472.902 413.464,478.902 387.5,480C 376.182,480.92 364.849,481.587 353.5,482C 289.5,482.667 225.5,482.667 161.5,482C 146.486,481.632 131.486,480.965 116.5,480C 114.618,479.802 112.952,479.302 111.5,478.5C 191.818,480.514 272.151,481.014 352.5,480C 379.761,479.256 406.761,476.256 433.5,471C 454.688,466.134 471.188,454.634 483,436.5C 493.052,414.623 498.552,391.623 499.5,367.5 Z"/></g>
</svg>
